<?xml version="1.0" encoding="UTF-8" standalone="no"?>
<!-- Created with Inkscape (http://www.inkscape.org/) -->

<svg
   xmlns:dc="http://purl.org/dc/elements/1.1/"
   xmlns:cc="http://creativecommons.org/ns#"
   xmlns:rdf="http://www.w3.org/1999/02/22-rdf-syntax-ns#"
   xmlns:svg="http://www.w3.org/2000/svg"
   xmlns="http://www.w3.org/2000/svg"
   xmlns:sodipodi="http://sodipodi.sourceforge.net/DTD/sodipodi-0.dtd"
   xmlns:inkscape="http://www.inkscape.org/namespaces/inkscape"
   width="98.435768mm"
   height="30.19825mm"
   viewBox="0 0 348.78815 107.00167"
   id="svg2"
   version="1.1"
   inkscape:version="0.91 r13725"
   sodipodi:docname="logo-raw.svg">
  <defs
     id="defs4" />
  <sodipodi:namedview
     id="base"
     pagecolor="#ffffff"
     bordercolor="#666666"
     borderopacity="1.0"
     inkscape:pageopacity="0.0"
     inkscape:pageshadow="2"
     inkscape:zoom="0.35"
     inkscape:cx="-352.03448"
     inkscape:cy="-117.92773"
     inkscape:document-units="px"
     inkscape:current-layer="layer1"
     showgrid="false"
     fit-margin-top="0"
     fit-margin-left="0"
     fit-margin-right="0"
     fit-margin-bottom="0"
     inkscape:window-width="1235"
     inkscape:window-height="696"
     inkscape:window-x="45"
     inkscape:window-y="24"
     inkscape:window-maximized="1" />
  <metadata
     id="metadata7">
    <rdf:RDF>
      <cc:Work
         rdf:about="">
        <dc:format>image/svg+xml</dc:format>
        <dc:type
           rdf:resource="http://purl.org/dc/dcmitype/StillImage" />
        <dc:title></dc:title>
      </cc:Work>
    </rdf:RDF>
  </metadata>
  <g
     inkscape:label="Layer 1"
     inkscape:groupmode="layer"
     id="layer1"
     transform="translate(-171.3202,-307.43281)">
    <g
       style="font-style:normal;font-variant:normal;font-weight:normal;font-stretch:normal;font-size:147.18249512px;line-height:125%;font-family:Alice;-inkscape-font-specification:Alice;letter-spacing:0px;word-spacing:0px;fill:#000000;fill-opacity:1;stroke:none;stroke-width:1px;stroke-linecap:butt;stroke-linejoin:miter;stroke-opacity:1"
       id="text3372">
      <path
         d="m 211.6482,343.49252 -36.20689,0 q -1.03028,-1.61901 -1.91337,-4.41548 -0.8831,-2.79647 -0.8831,-5.8873 0,-5.74012 2.5021,-8.24222 2.64929,-2.5021 6.7704,-2.5021 l 54.89907,0 q 6.47603,5.29857 6.47603,14.12952 0,3.67956 -1.76619,7.35912 -1.61901,3.53238 -4.26829,6.7704 l -33.41043,40.328 37.67872,0 q 1.03028,1.61901 1.91337,4.41548 0.8831,2.79646 0.8831,5.8873 0,5.74011 -2.64929,8.24222 -2.5021,2.5021 -6.62321,2.5021 l -57.9899,0 q -2.50211,-2.06056 -4.12111,-5.59294 -1.61901,-3.53238 -1.61901,-8.09503 0,-3.67957 1.91337,-7.50631 1.91337,-3.82674 4.56266,-7.06476 l 33.85197,-40.328 z"
         style="font-style:normal;font-variant:normal;font-weight:normal;font-stretch:normal;font-family:Baloo;-inkscape-font-specification:Baloo;letter-spacing:-9.91593456px"
         id="path3372" />
      <path
         d="m 318.86424,376.31421 q 0,9.12532 -2.79647,16.33726 -2.79646,7.06476 -7.94785,11.92178 -5.00421,4.85702 -12.06897,7.35913 -7.06476,2.5021 -15.74852,2.5021 -8.68377,0 -15.74853,-2.64929 -7.06476,-2.64928 -12.21615,-7.5063 -5.0042,-5.00421 -7.80067,-12.06897 -2.79647,-7.06476 -2.79647,-15.89571 0,-8.68376 2.79647,-15.74852 2.79647,-7.06476 7.80067,-11.92179 5.15139,-5.0042 12.21615,-7.65349 7.06476,-2.64928 15.74853,-2.64928 8.68376,0 15.74852,2.79647 7.06476,2.64928 12.06897,7.65349 5.15139,4.85702 7.94785,11.92178 2.79647,7.06476 2.79647,15.60134 z m -51.51387,0 q 0,8.97814 3.38519,13.83516 3.53238,4.70984 9.71405,4.70984 6.18166,0 9.41968,-4.85702 3.3852,-4.85703 3.3852,-13.68798 0,-8.83095 -3.3852,-13.54079 -3.3852,-4.85702 -9.56686,-4.85702 -6.18167,0 -9.56687,4.85702 -3.38519,4.70984 -3.38519,13.54079 z"
         style="font-style:normal;font-variant:normal;font-weight:normal;font-stretch:normal;font-family:Baloo;-inkscape-font-specification:Baloo;letter-spacing:-9.91593456px"
         id="path3374" />
      <path
         d="m 391.06694,399.1275 q -0.73591,6.91758 -4.1211,10.59714 -3.23802,3.67956 -9.56687,3.67956 -4.70984,0 -8.3894,-2.20774 -3.67956,-2.35492 -7.94785,-7.80067 l -14.57107,-18.25063 0,26.78722 q -1.61901,0.29436 -4.85702,0.73591 -3.09084,0.58873 -6.32885,0.58873 -3.23802,0 -5.8873,-0.44155 -2.5021,-0.44155 -4.26829,-1.76619 -1.76619,-1.32464 -2.79647,-3.53238 -0.8831,-2.35492 -0.8831,-6.03448 l 0,-85.21866 q 1.61901,-0.44155 4.70984,-0.8831 3.23802,-0.58873 6.47603,-0.58873 3.23802,0 5.74012,0.44155 2.64929,0.44155 4.41548,1.76619 1.76619,1.32464 2.64928,3.67956 1.03028,2.20774 1.03028,5.8873 l 0,38.85618 25.31539,-25.90412 q 7.65349,0 12.21615,3.3852 4.70984,3.38519 4.70984,8.53658 0,2.20774 -0.73592,4.12111 -0.73591,1.76619 -2.35492,3.67956 -1.47182,1.91338 -3.97392,4.12111 -2.35492,2.06056 -5.59294,4.85703 l -8.53658,7.35912 23.54919,23.5492 z"
         style="font-style:normal;font-variant:normal;font-weight:normal;font-stretch:normal;font-family:Baloo;-inkscape-font-specification:Baloo;letter-spacing:-9.91593456px"
         id="path3376" />
      <path
         d="m 392.29088,320.67923 q 0,-5.59293 3.67956,-9.41968 3.82675,-3.82674 10.00841,-3.82674 6.18167,0 9.86123,3.82674 3.82674,3.82675 3.82674,9.41968 0,5.59293 -3.82674,9.41968 -3.67956,3.82674 -9.86123,3.82674 -6.18166,0 -10.00841,-3.82674 -3.67956,-3.82675 -3.67956,-9.41968 z m 26.19848,91.25315 q -1.619,0.29436 -4.85702,0.73591 -3.09083,0.58873 -6.32885,0.58873 -3.23801,0 -5.8873,-0.44155 -2.5021,-0.44155 -4.26829,-1.76619 -1.76619,-1.32464 -2.79647,-3.53238 -0.88309,-2.35492 -0.88309,-6.03448 l 0,-59.90328 q 1.61901,-0.29436 4.70984,-0.73591 3.23801,-0.58873 6.47603,-0.58873 3.23801,0 5.74012,0.44155 2.64928,0.44155 4.41547,1.76619 1.76619,1.32464 2.64929,3.67956 1.03027,2.20774 1.03027,5.8873 l 0,59.90328 z"
         style="font-style:normal;font-variant:normal;font-weight:normal;font-stretch:normal;font-family:Baloo;-inkscape-font-specification:Baloo;letter-spacing:-9.91593456px"
         id="path3378" />
      <path
         d="m 454.97271,396.18385 q 2.5021,0 5.44575,-0.44155 3.09083,-0.58873 4.56266,-1.47182 l 0,-11.7746 -10.59714,0.88309 q -4.12111,0.29437 -6.77039,1.76619 -2.64929,1.47183 -2.64929,4.41548 0,2.94365 2.20774,4.85702 2.35492,1.76619 7.80067,1.76619 z m -1.17746,-57.84272 q 7.94785,0 14.42388,1.61901 6.62322,1.619 11.18587,5.0042 4.70984,3.23802 7.21195,8.3894 2.5021,5.00421 2.5021,11.92179 l 0,32.96887 q 0,3.82675 -2.20774,6.32885 -2.06055,2.35492 -5.0042,4.12111 -9.56687,5.74012 -26.9344,5.74012 -7.80067,0 -14.12952,-1.47183 -6.18166,-1.47182 -10.74432,-4.41547 -4.41548,-2.94365 -6.91758,-7.50631 -2.35492,-4.56266 -2.35492,-10.59714 0,-10.15559 6.03448,-15.60134 6.03449,-5.44575 18.69218,-6.7704 l 19.28091,-2.06055 0,-1.03028 q 0,-4.26829 -3.82675,-6.03448 -3.67956,-1.91337 -10.74432,-1.91337 -5.59293,0 -10.8915,1.17746 -5.29857,1.17746 -9.56687,2.94365 -1.91337,-1.32465 -3.23801,-3.97393 -1.32464,-2.79647 -1.32464,-5.74012 0,-3.82674 1.76619,-6.03448 1.91337,-2.35492 5.74011,-3.97393 4.2683,-1.61901 10.00841,-2.35492 5.8873,-0.73591 11.03869,-0.73591 z"
         style="font-style:normal;font-variant:normal;font-weight:normal;font-stretch:normal;font-family:Baloo;-inkscape-font-specification:Baloo;letter-spacing:-9.91593456px"
         id="path3380" />
      <path
         d="m 520.10836,411.93238 q -1.61901,0.29436 -4.85703,0.73591 -3.09083,0.58873 -6.32884,0.58873 -3.23802,0 -5.8873,-0.44155 -2.50211,-0.44155 -4.2683,-1.76619 -1.76619,-1.32464 -2.79646,-3.53238 -0.8831,-2.35492 -0.8831,-6.03448 l 0,-85.36585 q 1.61901,-0.29436 4.70984,-0.73591 3.23802,-0.58873 6.47603,-0.58873 3.23802,0 5.74012,0.44155 2.64928,0.44155 4.41547,1.76619 1.76619,1.32464 2.64929,3.67956 1.03028,2.20774 1.03028,5.8873 l 0,85.36585 z"
         style="font-style:normal;font-variant:normal;font-weight:normal;font-stretch:normal;font-family:Baloo;-inkscape-font-specification:Baloo;letter-spacing:-9.91593456px"
         id="path3382" />
    </g>
  </g>
</svg>
