<?xml version="1.0" encoding="UTF-8" standalone="no"?>
<!-- Created with Inkscape (http://www.inkscape.org/) -->
<svg id="svg3364" xmlns:rdf="http://www.w3.org/1999/02/22-rdf-syntax-ns#" xmlns="http://www.w3.org/2000/svg" height="37.861mm" width="148.16mm" version="1.1" xmlns:cc="http://creativecommons.org/ns#" xmlns:dc="http://purl.org/dc/elements/1.1/" viewBox="0 0 524.99191 134.15235">
 <metadata id="metadata3369">
  <rdf:RDF>
   <cc:Work rdf:about="">
    <dc:format>image/svg+xml</dc:format>
    <dc:type rdf:resource="http://purl.org/dc/dcmitype/StillImage"/>
    <dc:title/>
   </cc:Work>
  </rdf:RDF>
 </metadata>
 <g id="layer1" transform="translate(-112.5 -465.29)">
  <g id="text2991" fill="#6c7eb7">
   <path id="path3381" d="m133.63 493.51h39.596q17.434 0.14775 25.264 10.047 7.8305 9.8989 5.1711 27.037-1.0342 7.8305-4.5801 15.365-3.3981 7.535-9.4557 13.593-7.3872 7.6827-15.809 9.7512-8.4215 2.0684-17.434 2.0684h-17.729l-5.6143 28.072h-20.537l21.128-105.93zm17.286 16.843-8.8647 44.323q0.88647 0.14775 1.7729 0.14775 1.0342 0 2.0684 0 14.184 0.14774 23.639-2.8072 9.4557-3.1026 12.706-21.571 2.6594-15.513-5.3188-17.877-7.8305-2.3639-19.65-2.2162-1.7729 0.14774-3.3981 0.14774-1.4774 0-3.1026 0l0.14775-0.14774z"/>
   <path id="path3383" d="m224.58 465.29h20.389l-5.762 28.219h18.32q15.07 0.29549 22.457 6.2053 7.535 5.9098 4.4324 22.457l-9.8989 49.199h-20.684l9.4557-46.983q1.4774-7.3872-0.88647-10.49-2.3639-3.1026-10.194-3.1026l-16.4-0.14774-12.115 60.723h-20.389l21.275-106.08z"/>
   <path id="path3385" d="m355.01 562.06q-6.7963 5.6143-15.218 8.2737-8.4215 2.6594-16.843 2.6594-8.4214 0-15.809-2.6594-7.2395-2.6594-11.82-8.126-4.5801-5.6143-5.9098-13.445-1.3297-7.8305 0.29549-16.104 1.7729-8.2737 6.2053-16.104 4.4324-7.8305 11.229-13.445 6.7963-5.4666 15.218-8.126 8.4215-2.8072 16.843-2.8072 8.2737 0 15.661 2.8072 7.3872 2.6594 11.82 8.126 4.7278 5.6143 6.0575 13.445 1.3297 7.8305-0.44324 16.104-1.6252 8.2737-6.0575 16.104-4.4323 7.8305-11.376 13.445l0.14774-0.14775zm-35.459-7.2395q1.0342 0.44323 1.9207 0.73872 0.88646 0.29549 1.7729 0.44323 6.7963 1.0342 13.74-2.6594 6.944-3.6936 10.49-10.785 1.182-2.5117 2.0684-5.3188 1.0342-2.9549 1.6252-5.9098 1.0342-6.5008-0.59097-12.263-1.6252-5.9098-7.3872-8.5692-1.182-0.59098-2.6594-0.88647-1.3297-0.29549-2.6594-0.44323-6.6485-0.59098-13.297 3.1026t-10.047 10.342q-1.182 2.5117-2.2162 5.3188-0.88647 2.6594-1.182 5.3188-1.3297 6.944 0.44324 13.149 1.9207 6.0575 7.9782 8.5692v-0.14774z"/>
   <path id="path3387" d="m437.99 518.18-26.89 53.188h-22.753l-11.524-77.862h21.423l6.353 54.518 27.776-54.518h21.866l6.5008 54.518 27.924-54.518h21.128l-41.812 77.862h-23.639l-6.353-53.188z"/>
   <path id="path3389" d="m530.96 571.37q-8.2737 0-15.661-1.9207-7.3872-2.0684-11.967-8.4215-3.6936-5.1711-4.5801-11.82-0.73872-6.6485 0.14775-13.593 0.14774-0.73872 0.29549-1.4774 0.14774-0.73872 0.29549-1.4774 0.29549-1.0342 0.44323-1.9207 0.14775-1.0342 0.59098-2.0684 1.7729-6.6485 5.1711-13.002 3.3981-6.5008 9.0124-11.524 7.2395-6.5008 15.365-8.4214 8.126-2.0684 16.4-2.0684l29.992-0.14775-3.2504 16.252h-27.185q-8.5692 0.14774-14.184 2.6594-5.6143 2.3639-7.9782 12.115l46.54-0.14775-3.2504 16.252h-46.392q-1.7729 10.194 2.6594 12.411 4.4323 2.2162 13.445 2.2162l27.333-0.14774-3.2504 16.252h-29.992z"/>
   <path id="path3391" d="m584.68 493.51h34.572q16.695 0.14775 17.877 7.6827t-1.4774 20.241q-0.29549 1.182-0.59098 2.3639-0.14775 1.182-0.44324 2.5117l-19.65-0.14775q0.14775-0.73872 0.29549-1.6252 0.29549-0.88647 0.44324-1.6252 2.0684-10.785 0.73872-12.558-1.3297-1.7729-11.967-1.7729-0.59098 0-1.182 0-0.44323 0-1.0342 0l-12.558 62.792h-20.537l15.513-77.862z"/>
  </g>
 </g>
</svg>
